# xmcd
#
# Track frame offsets: 
#        150
#        14206
#        30499
#        45103
#        61616
#        85367
#        88825
#
# Disc length: 1446 seconds
#
# Revision: 0
# Processed by: cddbd v1.5.2PL0 Copyright (c) Steve Scherf et al.
# Submitted via: ExactAudioCopy v0.99pb5
#
DISCID=4b05a407
DTITLE=Nick Edelstein - Year of the Ox
DYEAR=2011
DGENRE=Funk Rock
TTITLE0=01. Foolin' Yourself
TTITLE1=02. Collusion Collision
TTITLE2=03. Daphne
TTITLE3=04. Steal Me
TTITLE4=05. 500 Mountains
TTITLE5=06. Gray
TTITLE6=07. PC Religion
EXTD=
EXTT0=
EXTT1=
EXTT2=
EXTT3=
EXTT4=
EXTT5=
EXTT6=
PLAYORDER=
